<?xml version="1.0" encoding="windows-1252"?>
<!-- Generator: Adobe Illustrator 19.0.0, SVG Export Plug-In . SVG Version: 6.00 Build 0)  -->
<svg version="1.1" id="Layer_1" xmlns="http://www.w3.org/2000/svg" xmlns:xlink="http://www.w3.org/1999/xlink" x="0px" y="0px" viewBox="0 0 512 512" style="enable-background:new 0 0 512 512;" xml:space="preserve">
<circle style="fill:#71E2EF;" cx="256" cy="256" r="256"/>
<path style="fill:#38C6D9;" d="M505.447,313.806l-259.01-258.57l-11.412,19.323l-64.502,321.09l114.307,114.728  C393.34,498.21,481.344,418.238,505.447,313.806z"/>
<path style="fill:#FFFFFF;" d="M238.233,144.031V56.889h-28.444v87.219c-24.516,6.558-42.667,29.532-42.667,56.127V387.52  c0,6.387,5.177,11.564,11.564,11.564h90.648c6.387,0,11.564-5.177,11.564-11.564V199.111  C280.9,172.606,262.766,150.347,238.233,144.031z"/>
<path style="fill:#CECECE;" d="M238.233,144.031V56.889h-14.988v342.195h46.089c6.387,0,11.564-5.177,11.564-11.564V199.111  C280.9,172.606,262.766,150.347,238.233,144.031z"/>
<path style="fill:#FF0F27;" d="M189.245,382.707h69.53c4.363,0,7.901-3.537,7.901-7.901V219.943c0-4.363-3.537-7.901-7.901-7.901  h-69.53c-4.363,0-7.901,3.537-7.901,7.901v154.864C181.345,379.17,184.882,382.707,189.245,382.707z"/>
<path style="fill:#B50922;" d="M258.775,212.04h-35.53v170.667h35.53c4.363,0,7.901-3.537,7.901-7.901V219.943  C266.678,215.578,263.14,212.04,258.775,212.04z"/>
<path style="fill:#FFEDB5;" d="M207.131,76.714h33.759c4.006,0,7.256-3.248,7.256-7.254v-9.625c0-4.006-3.248-7.254-7.256-7.254  h-33.759c-4.006,0-7.254,3.248-7.254,7.254v9.625C199.877,73.466,203.124,76.714,207.131,76.714z"/>
<path style="fill:#FEE187;" d="M240.89,52.579h-17.644v24.135h17.644c4.006,0,7.254-3.248,7.254-7.254v-9.625  C248.146,55.827,244.898,52.579,240.89,52.579z"/>
<path style="fill:#940030;" d="M215.535,341.333h-48.412V256h48.414c4.68,0,8.475,3.794,8.475,8.476v68.382  C224.011,337.539,220.217,341.333,215.535,341.333z"/>
<path style="fill:#FFFFFF;" d="M396.874,266.749l-14.646-58.587h-56.889l-14.646,58.587c-6.437,25.748,10.931,50.74,36.195,54.646  v66.484h-16.377c-2.857,0-5.172,2.315-5.172,5.172s2.315,5.172,5.172,5.172h46.545c2.857,0,5.172-2.315,5.172-5.172  s-2.315-5.172-5.172-5.172h-16.377v-66.484C385.943,317.488,403.311,292.499,396.874,266.749z"/>
<path style="fill:#CECECE;" d="M396.874,266.749l-14.646-58.587h-28.539v190.061h23.368c2.857,0,5.172-2.315,5.172-5.172  s-2.315-5.172-5.172-5.172h-16.377v-66.484C385.943,317.488,403.311,292.499,396.874,266.749z"/>
<path style="fill:#FF0F27;" d="M386.748,251.259h-65.931l-3.81,15.241c-5.982,23.924,12.114,47.101,36.776,47.101  c24.662,0,42.756-23.176,36.776-47.101L386.748,251.259z"/>
<path style="fill:#B50922;" d="M390.558,266.5l-3.81-15.241h-33.059v62.34c0.031,0,0.062,0.002,0.095,0.002  C378.444,313.601,396.54,290.425,390.558,266.5z"/>
<g>
</g>
<g>
</g>
<g>
</g>
<g>
</g>
<g>
</g>
<g>
</g>
<g>
</g>
<g>
</g>
<g>
</g>
<g>
</g>
<g>
</g>
<g>
</g>
<g>
</g>
<g>
</g>
<g>
</g>
</svg>