<?xml version="1.0" encoding="windows-1252"?>
<!-- Generator: Adobe Illustrator 19.0.0, SVG Export Plug-In . SVG Version: 6.00 Build 0)  -->
<svg version="1.1" id="Layer_1" xmlns="http://www.w3.org/2000/svg" xmlns:xlink="http://www.w3.org/1999/xlink" x="0px" y="0px" viewBox="0 0 512 512" style="enable-background:new 0 0 512 512;" xml:space="preserve">
<polygon style="fill:#E6E6E6;" points="497.808,121.113 278.275,289.21 222.593,276.48 22.985,130.92 22.985,121.113 "/>
<path style="fill:#F7B239;" d="M434.466,162.74L314.94,253.477c-17.073,12.945-37.404,19.794-58.808,19.794  s-41.747-6.848-58.797-19.782L77.809,162.74H434.466z"/>
<path style="fill:#2BA5F7;" d="M323.101,512H188.887c12.11-21.07,34.063-34.445,58.164-35.686V349.761  c0-26.952-12.611-52.366-34.075-68.664L2.225,121.113h20.76l174.349,132.376c17.05,12.933,37.392,19.782,58.797,19.782  s41.735-6.848,58.808-19.794l149.664-113.62l23.91-18.744h21.261L299.024,281.097c-21.464,16.298-34.075,41.711-34.075,68.664  v126.553c11.43,0.585,22.395,3.901,32.035,9.485C307.662,491.98,316.741,500.928,323.101,512z"/>
<path style="fill:#995C0D;" d="M178.365,108.891l-0.215-5.356c-0.067-1.458-1.916-34.334-32.01-34.334h-5.369V58.462h5.369  c32.392,0,42.122,29.195,42.738,44.633l0.216,5.365L178.365,108.891z"/>
<circle style="fill:#EF65A4;" cx="184.407" cy="126.947" r="31.817"/>
<g>
	<path style="fill:#F24C8F;" d="M215.685,121.113h-62.543c2.732-14.795,15.689-25.986,31.271-25.986   S212.953,106.318,215.685,121.113z"/>
	<polygon style="fill:#F24C8F;" points="416.462,7.326 348.645,121.113 323.84,162.74 307.184,162.74 331.989,121.113 404.161,0     "/>
</g>
<polygon style="fill:#E09B2D;" points="303.032,162.74 251.359,249.444 234.703,249.444 286.365,162.74 "/>
<g>
	<circle style="fill:#FFFFFF;" cx="321.019" cy="201.91" r="6.959"/>
	<circle style="fill:#FFFFFF;" cx="170.687" cy="183.417" r="6.959"/>
	<circle style="fill:#FFFFFF;" cx="213.841" cy="233.731" r="6.959"/>
	<circle style="fill:#FFFFFF;" cx="255.994" cy="178.847" r="6.959"/>
</g>
<g>
	<circle style="fill:#E09B2D;" cx="289.341" cy="236.713" r="6.959"/>
	<circle style="fill:#E09B2D;" cx="211.455" cy="195.348" r="6.959"/>
</g>
<polygon style="fill:#EF65A4;" points="348.645,121.113 323.84,162.74 307.184,162.74 331.989,121.113 "/>
<g>
</g>
<g>
</g>
<g>
</g>
<g>
</g>
<g>
</g>
<g>
</g>
<g>
</g>
<g>
</g>
<g>
</g>
<g>
</g>
<g>
</g>
<g>
</g>
<g>
</g>
<g>
</g>
<g>
</g>
</svg>