<?xml version="1.0" encoding="windows-1252"?>
<!-- Generator: Adobe Illustrator 19.1.1, SVG Export Plug-In . SVG Version: 6.00 Build 0)  -->
<svg version="1.1" xmlns="http://www.w3.org/2000/svg" xmlns:xlink="http://www.w3.org/1999/xlink" x="0px" y="0px" viewBox="0 0 48 48" style="enable-background:new 0 0 48 48;" xml:space="preserve">
<ellipse style="fill:#FF8F00;" cx="30.001" cy="32.5" rx="12" ry="11.5"/>
<g>
	<circle style="fill:#EF6C00;" cx="34.001" cy="35" r="1"/>
	<circle style="fill:#EF6C00;" cx="36.001" cy="38" r="1"/>
	<circle style="fill:#EF6C00;" cx="38.001" cy="35" r="1"/>
	<path style="fill:#EF6C00;" d="M30.001,21c-0.85,0-1.677,0.088-2.477,0.249C26.893,32.152,25.8,39.068,25.285,42.32   c-0.037,0.234-0.116,0.452-0.225,0.65c0.654,0.284,1.339,0.51,2.049,0.679c1.114-3.507,1.889-7.689,2.665-12.895   c0.489-3.279,2.764-5.964,5.875-7.108c0.142-0.052,0.928-0.225,1.503-0.366C35.154,21.855,32.685,21,30.001,21z"/>
</g>
<path style="fill:#4CAF50;" d="M30.001,23.063c0,0,9.624,0.687,12-9.063C30.334,14,30.001,23.063,30.001,23.063z"/>
<line style="fill:none;stroke:#5D4037;stroke-width:2;stroke-miterlimit:10;" x1="30.001" y1="19" x2="30.001" y2="23.063"/>
<path style="fill:#BBDEFB;" d="M6,4c0,21.157,1.97,33.599,2.718,38.32C8.872,43.291,9.71,44,10.692,44h12.618  c0.983,0,1.821-0.709,1.974-1.68C26.033,37.599,28,25.157,28,4H6z"/>
<path style="fill:#FFFFFF;" d="M8.153,12h2.89c-0.001-0.656-0.003-1.32-0.004-2c-0.003-1.282-0.008-2.625-0.014-4H8.029  c0.016,1.361,0.038,2.702,0.069,4C8.114,10.679,8.133,11.339,8.153,12z"/>
<path style="fill:#FFB300;" d="M27.897,12H6.1c0.309,12.427,1.287,21.114,2.023,26.364C8.106,38.246,8.098,38.124,8.104,38  c0.029,0.224,0.056,0.423,0.084,0.636C8.421,39.419,9.138,40,10.004,40h13.995c0.866,0,1.584-0.581,1.816-1.364  c0.028-0.212,0.055-0.411,0.084-0.636c0.006,0.123-0.003,0.243-0.019,0.361C26.616,33.113,27.588,24.415,27.897,12z"/>
<path style="fill:#FFE082;" d="M8.153,12c0.4,13.285,1.513,22.918,2.239,28h0.609c0-9.314,0.062-17.066,0.042-28H8.153z"/>
</svg>